<?xml version="1.0" standalone="no"?>
<!DOCTYPE svg PUBLIC "-//W3C//DTD SVG 20010904//EN"
 "http://www.w3.org/TR/2001/REC-SVG-20010904/DTD/svg10.dtd">
<svg version="1.0" xmlns="http://www.w3.org/2000/svg"
 width="512.000000pt" height="512.000000pt" viewBox="0 0 512.000000 512.000000"
 preserveAspectRatio="xMidYMid meet">
<metadata>
Created by potrace 1.16, written by Peter Selinger 2001-2019
</metadata>
<g transform="translate(0.000000,512.000000) scale(0.100000,-0.100000)"
fill="#000000" stroke="none">
<path d="M1655 5109 c-704 -20 -1028 -105 -1269 -330 -234 -219 -325 -489
-368 -1089 -17 -249 -17 -2007 0 -2260 39 -556 123 -828 320 -1041 218 -234
495 -329 1072 -369 244 -17 1530 -24 1965 -11 621 18 884 58 1113 166 379 180
547 485 602 1090 39 433 39 2178 0 2588 -47 491 -157 763 -388 960 -183 156
-441 239 -857 277 -300 27 -1548 38 -2190 19z m-200 -1646 c38 -579 207 -989
502 -1224 71 -56 209 -132 266 -145 l27 -6 0 736 0 736 285 0 285 0 0 -420 0
-421 38 7 c270 47 586 375 712 742 l33 92 277 0 278 0 -14 -62 c-67 -294 -209
-544 -438 -773 -72 -72 -161 -151 -198 -175 -37 -25 -67 -47 -68 -50 0 -3 28
-21 62 -40 174 -98 400 -306 527 -485 72 -102 187 -331 225 -449 14 -43 26
-82 26 -87 0 -5 -134 -9 -303 -9 l-304 0 -11 38 c-19 64 -100 221 -154 298
-65 95 -215 237 -304 290 -106 63 -224 106 -351 128 l-33 5 0 -379 0 -380
-115 0 c-473 0 -905 162 -1215 457 -383 364 -582 867 -624 1581 l-6 92 294 0
294 0 7 -97z"/>
</g>
</svg>
